# AST/ASF file generated using VICON BodyLanguage
# -----------------------------------------------
:version 1.10
:name VICON
:units
  mass 1.0
  length 0.45
  angle deg
:documentation
   .ast/.asf automatically generated from VICON data using
   VICON BodyBuilder and BodyLanguage model FoxedUp or BRILLIANT.MOD
:root
   order TX TY TZ RX RY RZ
   axis XYZ
   position 0 0 0  
   orientation 0 0 0 
:bonedata
  begin
     id 1 
     name lhipjoint
     direction 0.576517 -0.752066 0.319413 
     length 2.45433 
     axis 0 0 0  XYZ
  end
  begin
     id 2 
     name lfemur
     direction 0.34202 -0.939693 0  
     length 7.54459  
     axis 0 0 20  XYZ
    dof rx ry rz
    limits (-160.0 20.0)
           (-70.0 70.0)
           (-60.0 70.0)
  end
  begin
     id 3 
     name ltibia
     direction 0.34202 -0.939693 0   
     length 7.73986   
     axis 0 0 20   XYZ
    dof rx
    limits (-10.0 170.0)
  end
  begin
     id 4 
     name lfoot
     direction 0.090693 -0.249177 0.964202   
     length 2.28437   
     axis -90 7.62852e-016 20   XYZ
    dof rx rz
    limits (-45.0 90.0)
           (-70.0 20.0)
  end
  begin
     id 5 
     name ltoes
     direction 1.5356e-011 -4.21928e-011 1   
     length 1.14243   
     axis -90 7.62852e-016 20   XYZ
    dof rx
    limits (-90.0 20.0)
  end
  begin
     id 6 
     name rhipjoint
     direction -0.573937 -0.753736 0.320122   
     length 2.44889  
     axis 0 0 0  XYZ 
  end
  begin
     id 7 
     name rfemur
     direction -0.34202 -0.939693 0   
     length 7.50166   
     axis 0 0 -20   XYZ
    dof rx ry rz
    limits (-160.0 20.0)
           (-70.0 70.0)
           (-70.0 60.0)
  end
  begin
     id 8 
     name rtibia
     direction -0.34202 -0.939693 0   
     length 7.54266   
     axis 0 0 -20   XYZ
    dof rx
    limits (-10.0 170.0)
 end
 begin
     id 9 
     name rfoot
     direction -0.114017 -0.31326 0.942798   
     length 2.34212  
     axis -90 -7.62852e-016 -20   XYZ
    dof rx rz
    limits (-45.0 90.0)
           (-20.0 70.0)
  end
  begin
     id 10 
     name rtoes
     direction -1.53557e-011 -4.21867e-011 1   
     length 1.16246   
     axis -90 -7.62852e-016 -20   XYZ
    dof rx
    limits (-90.0 20.0)
  end
  begin
     id 11 
     name lowerback
     direction -0.0228371 0.999155 -0.034167   
     length 2.0537   
     axis 0 0 0   XYZ
    dof rx ry rz
    limits (-20.0 45.0)
           (-30.0 30.0)
           (-30.0 30.0)
  end
  begin
     id 12 
     name upperback
     direction 0.0198981 0.999794 0.00389455   
     length 2.05302   
     axis 0 0 0   XYZ
    dof rx ry rz
    limits (-20.0 45.0)
           (-30.0 30.0)
           (-30.0 30.0)
  end
  begin
     id 13 
     name thorax
     direction 0.0304566 0.99935 0.0192987   
     length 2.05315   
     axis 0 0 0   XYZ
    dof rx ry rz
    limits (-20.0 45.0)
           (-30.0 30.0)
           (-30.0 30.0)
  end
  begin
     id 14 
     name lowerneck
     direction -0.0196762 0.99417 0.106017   
     length 1.82056   
     axis 0 0 0   XYZ
    dof rx ry rz
    limits (-20.0 45.0)
           (-30.0 30.0)
           (-30.0 30.0)
  end
  begin
     id 15 
     name upperneck
     direction 0.00517787 0.9802 -0.197944   
     length 1.83835   
     axis 0 0 0   XYZ
    dof rx ry rz
    limits (-20.0 45.0)
           (-30.0 30.0)
           (-30.0 30.0)
  end
  begin
     id 16
     name head
     direction 0.00211419 0.996945 -0.078081  
     length 1.85629  
     axis 0 0 0   XYZ
    dof rx ry rz
    limits (-20.0 45.0)
           (-30.0 30.0)
           (-30.0 30.0)
  end
  begin
     id 17 
     name lclavicle
     direction 0.930001 0.365811 -0.0357824  
     length 3.81961  
     axis 0 0 0   XYZ
    dof ry rz
    limits (-20.0 10.0)
           (0.0 20.0)
  end
  begin
     id 18 
     name lhumerus
     direction 1 -4.48968e-011 -3.06644e-027   
     length 5.14507   
     axis 180 -30 -90   XYZ
    dof rx ry rz
    limits (-60.0 90.0)
           (-90.0 90.0)
           (-90.0 90.0)
  end
  begin
     id 19
     name lradius
     direction 1 -4.48965e-011 9.06925e-028   
     length 3.50646   
     axis 180 -30 -90   XYZ
    dof rx
    limits (-10.0 170.0)
  end
  begin
     id 20
     name lwrist
     direction 1 -4.48957e-011 1.03922e-027   
     length 1.75323   
     axis -2.56395e-016 90 90   XYZ
    dof ry
    limits (-180.0 0.0)
 end
  begin
     id 21 
     name lhand
     direction 1 -4.48967e-011 2.08017e-027   
     length 0.629969   
     axis -1.32723e-015 90 90   XYZ
    dof rx rz
    limits (-90.0 90.0)
           (-45.0 45.0)
  end
  begin
     id 22 
     name lfingers
     direction 1 -4.49089e-011 4.20095e-027   
     length 0.507897   
     axis -2.6545e-015 90 90   XYZ
    dof rx
    limits (0.0 90.0)
  end
  begin
     id 23
     name lthumb
     direction 0.707107 -6.35001e-011 0.707107   
     length 0.729241   
     axis -90 45 5.05613e-014   XYZ
    dof rx rz
    limits (-45.0 45.0)
           (-45.0 45.0)
  end
  begin
     id 24 
     name rclavicle
     direction -0.881882 0.464123 -0.0829113   
     length 3.47515  
     axis 0 0 0   XYZ 
    dof ry rz
    limits (-10.0 20.0)
           (-20.0 0.0)
  end
  begin
     id 25 
     name rhumerus
     direction -1 -4.48961e-011 -1.55672e-027  
     length 5.232   
     axis 180 30 90   XYZ
    dof rx ry rz
    limits (-90.0 60.0)
           (-90.0 90.0)
           (-90.0 90.0)
  end
  begin
     id 26 
     name rradius
     direction -1 -4.48963e-011 6.18178e-029   
     length 3.65641   
     axis 180 30 90   XYZ
    dof rx
    limits (-10.0 170.0)
  end
  begin
     id 27 
     name rwrist
     direction -1 -4.48982e-011 1.04136e-027   
     length 1.8282   
     axis -2.56395e-016 -90 -90   XYZ
    dof ry
    limits (-180.0 0.0)
  end
  begin
     id 28
     name rhand
     direction -1 -4.48929e-011 2.07378e-027   
     length 0.656807   
     axis -1.32723e-015 -90 -90   XYZ
    dof rx rz
    limits (-90.0 90.0)
           (-45.0 45.0)
  end
  begin
     id 29
     name rfingers
     direction -1 -4.489e-011 4.13816e-027   
     length 0.529535   
     axis -2.6545e-015 -90 -90   XYZ
    dof rx
    limits (0.0 90.0)
  end
  begin
     id 30
     name rthumb
     direction -0.707107 -6.34843e-011 0.707107   
     length 0.760309   
     axis -90 -45 -5.05613e-014   XYZ
    dof rx rz
    limits (-45.0 45.0)
           (-45.0 45.0)
  end
:hierarchy
  begin
    root lhipjoint rhipjoint lowerback
    lhipjoint lfemur
    lfemur ltibia
    ltibia lfoot
    lfoot ltoes
    rhipjoint rfemur
    rfemur rtibia
    rtibia rfoot
    rfoot rtoes
    lowerback upperback
    upperback thorax
    thorax lowerneck lclavicle rclavicle
    lowerneck upperneck
    upperneck head
    lclavicle lhumerus
    lhumerus lradius
    lradius lwrist
    lwrist lhand lthumb
    lhand lfingers
    rclavicle rhumerus
    rhumerus rradius
    rradius rwrist
    rwrist rhand rthumb
    rhand rfingers
  end

#!OML:ASF H:\ManfredETheater\Project 1\Capture day 1\Session 1\subject.ASF
:FULLY-SPECIFIED
:DEGREES
16
root -10.955 16.2568 -35.7359 25.6637 -1.6911 1.00769
lowerback 16.4996 -0.675012 -6.37952
upperback -0.963067 -2.12809 0.277167
thorax -10.1146 -0.65639 4.45333
lowerneck -20.6529 -0.0119065 -0.864362
upperneck -2.52929 0.0780178 2.12789
head 2.77007 0.133509 0.870834
rclavicle -2.56432e-014 -4.37326e-015
rhumerus -66.2455 -3.26689 -75.1999
rradius 64.9312
rwrist -16.2658
rhand -30.0975 9.18239
rfingers 7.12502
rthumb -3.41162 -20.7701
lclavicle -2.56432e-014 -4.37326e-015
lhumerus -27.7087 -18.0064 101.914
lradius 107.921
lwrist 19.7352
lhand -21.9398 -11.0192
lfingers 7.12502
lthumb 4.46691 18.9137
rfemur -60.8224 -16.2357 17.1914
rtibia 90.1088
rfoot -11.4789 -9.29291
rtoes -4.829
lfemur -30.0124 0.580888 -30.1188
ltibia 59.8033
lfoot -28.402 -15.0017
ltoes 12.1008
17
root -10.9389 16.2896 -35.1759 25.5403 -1.88148 1.0454
lowerback 15.9984 -0.811926 -6.26745
upperback -1.0539 -2.2397 0.43863
thorax -9.91165 -0.717806 4.57561
lowerneck -20.7563 0.25729 -0.768602
upperneck -2.21719 0.427018 1.66822
head 2.89316 0.28682 0.733075
rclavicle 1.55052e-014 7.95139e-015
rhumerus -68.7949 -2.28916 -74.4217
rradius 67.0806
rwrist -17.0407
rhand -29.76 9.5974
rfingers 7.12502
rthumb -3.08567 -20.36
lclavicle 1.55052e-014 7.95139e-015
lhumerus -27.4833 -19.9126 102.07
lradius 112.929
lwrist 18.5633
lhand -21.7114 -11.2977
lfingers 7.12502
lthumb 4.68746 18.6304
rfemur -63.2115 -15.9373 17.4573
rtibia 88.3493
rfoot -11.962 -9.2268
rtoes -7.1582
lfemur -26.7577 0.284042 -30.0619
ltibia 57.3101
lfoot -26.5482 -15.4034
ltoes 10.4077
18
root -10.9222 16.3285 -34.6054 25.3364 -2.11944 1.04827
lowerback 15.5063 -0.929352 -6.11833
upperback -1.11689 -2.32037 0.597678
thorax -9.68753 -0.76823 4.66457
lowerneck -20.8727 0.520587 -0.696396
upperneck -1.83274 0.774439 1.23559
head 3.04776 0.439614 0.609467
rclavicle 2.20651e-014 -2.78299e-015
rhumerus -71.1554 -1.4599 -73.6796
rradius 69.1234
rwrist -17.6107
rhand -29.4437 9.92986
rfingers 7.12502
rthumb -2.78025 -20.0318
lclavicle 2.20651e-014 -2.78299e-015
lhumerus -27.4747 -21.8097 102.111
lradius 117.796
lwrist 17.0543
lhand -21.5243 -11.7475
lfingers 7.12502
lthumb 4.8681 18.1766
rfemur -65.1906 -15.5419 17.6759
rtibia 86.1203
rfoot -12.2671 -9.14544
rtoes -9.65782
lfemur -23.4357 -0.184049 -30.0025
ltibia 54.6726
lfoot -24.11 -15.7196
ltoes 8.21593
19
root -10.9054 16.3722 -34.0265 25.0493 -2.43242 1.04018
lowerback 15.0394 -1.01446 -5.96903
upperback -1.14475 -2.36255 0.739428
thorax -9.44423 -0.80236 4.72441
lowerneck -21.0272 0.767775 -0.655884
upperneck -1.38395 1.10887 0.844615
head 3.23563 0.586626 0.505546
rclavicle 3.00165e-014 -5.1684e-015
rhumerus -73.2808 -0.827853 -72.9485
rradius 71.0123
rwrist -17.8663
rhand -29.1415 10.1919
rfingers 7.12502
rthumb -2.48835 -19.7733
lclavicle 3.00165e-014 -5.1684e-015
lhumerus -27.6973 -23.6474 102.088
lradius 122.459
lwrist 15.4656
lhand -21.3758 -12.3261
lfingers 7.12502
lthumb 5.0115 17.5946
rfemur -66.7571 -15.0577 17.8041
rtibia 83.468
rfoot -12.4254 -8.9818
rtoes -12.2457
lfemur -20.0875 -0.790053 -30.0038
ltibia 51.925
lfoot -20.9656 -15.9437
ltoes 5.61206
20
root -10.8887 16.4198 -33.4406 24.6789 -2.82249 1.0379
lowerback 14.615 -1.06457 -5.83743
upperback -1.13368 -2.36731 0.856138
thorax -9.18747 -0.819603 4.75865
lowerneck -21.5566 0.991912 -0.646649
upperneck -0.336087 1.42143 0.537698
head 3.22446 0.72724 0.392614
rclavicle -1.17283e-014 1.74931e-014
rhumerus -75.1291 -0.41027 -72.2134
rradius 72.7287
rwrist -17.8211
rhand -28.8207 10.5017
rfingers 7.12502
rthumb -2.17857 -19.4669
lclavicle -1.17283e-014 1.74931e-014
lhumerus -28.1311 -25.3661 102.04
lradius 126.835
lwrist 14.0547
lhand -21.2134 -12.9251
lfingers 7.12502
lthumb 5.16833 16.9919
rfemur -67.9147 -14.5015 17.821
rtibia 80.4381
rfoot -12.4414 -8.68149
rtoes -14.9409
lfemur -16.7444 -1.5183 -30.1029
ltibia 49.0887
lfoot -16.9643 -16.0849
ltoes 2.9486
21
root -10.8721 16.4693 -32.8494 24.2286 -3.3011 1.0499
lowerback 14.2478 -1.07675 -5.73844
upperback -1.09116 -2.33443 0.942146
thorax -8.93411 -0.818221 4.77139
lowerneck -21.7774 1.19093 -0.68684
upperneck 0.198262 1.71381 0.25205
head 3.42241 0.854135 0.338887
rclavicle 3.37934e-015 -1.19271e-015
rhumerus -76.6827 -0.182122 -71.4846
rradius 74.2839
rwrist -17.5716
rhand -28.4963 10.7584
rfingers 7.12502
rthumb -1.8652 -19.2132
lclavicle 3.37934e-015 -1.19271e-015
lhumerus -28.7764 -26.8976 101.996
lradius 130.82
lwrist 12.9762
lhand -21.0461 -13.4269
lfingers 7.12502
lthumb 5.32984 16.486
rfemur -68.6836 -13.8739 17.7119
rtibia 77.1004
rfoot -12.3032 -8.18769
rtoes -17.907
lfemur -13.4488 -2.3578 -30.3355
ltibia 46.2234
lfoot -12.0669 -16.0759
ltoes 0.315925
22
root -10.8555 16.5191 -32.2543 23.7115 -3.85944 1.07899
lowerback 13.9404 -1.05195 -5.66953
upperback -1.02233 -2.26444 0.995268
thorax -8.69138 -0.798169 4.76001
lowerneck -22.0066 1.3641 -0.747954
upperneck 0.72182 1.97806 0.00793285
head 3.61912 0.967555 0.299874
rclavicle -3.57812e-015 4.57205e-015
rhumerus -77.9289 -0.114066 -70.7844
rradius 75.7077
rwrist -17.2549
rhand -28.1798 10.9765
rfingers 7.12502
rthumb -1.55957 -18.9975
lclavicle -3.57812e-015 4.57205e-015
lhumerus -29.6061 -28.1714 101.958
lradius 134.29
lwrist 12.3314
lhand -20.9122 -13.7393
lfingers 7.12502
lthumb 5.45911 16.1703
rfemur -69.0927 -13.1861 17.4809
rtibia 73.4995
rfoot -11.9566 -7.45061
rtoes -21.1124
lfemur -10.2267 -3.32451 -30.721
ltibia 43.3441
lfoot -6.43195 -15.815
ltoes -2.13672
23
root -10.8404 16.5545 -31.6598 23.1405 -4.48256 1.13059
lowerback 13.6845 -0.993969 -5.622
upperback -0.930292 -2.16017 1.01144
thorax -8.4581 -0.761279 4.71611
lowerneck -22.2267 1.51046 -0.814426
upperneck 1.20738 2.2087 -0.20306
head 3.80345 1.06483 0.269548
rclavicle 2.49475e-014 -3.97569e-016
rhumerus -78.8609 -0.175262 -70.1437
rradius 77.0271
rwrist -16.9994
rhand -27.8857 11.1324
rfingers 7.12502
rthumb -1.2755 -18.8436
lclavicle 2.49475e-014 -3.97569e-016
lhumerus -30.556 -29.0713 101.864
lradius 137.126
lwrist 12.2349
lhand -20.7378 -13.8601
lfingers 7.12502
lthumb 5.6275 16.0452
rfemur -69.2614 -12.4537 17.1401
rtibia 69.761
rfoot -11.3421 -6.48437
rtoes -24.5277
lfemur -7.13262 -4.44786 -31.2867
ltibia 40.57
lfoot -0.450772 -15.2658
ltoes -4.04715
24
root -10.823 16.5954 -31.0613 22.5354 -5.15813 1.2099
lowerback 13.4699 -0.906245 -5.60022
upperback -0.824054 -2.02566 0.996079
thorax -8.23727 -0.70882 4.64908
lowerneck -22.4132 1.63166 -0.884482
upperneck 1.63608 2.40694 -0.388423
head 3.96576 1.14669 0.244841
rclavicle 7.85199e-015 -9.14409e-015
rhumerus -79.4799 -0.322126 -69.5862
rradius 78.2628
rwrist -16.8863
rhand -27.6369 11.2148
rfingers 7.12502
rthumb -1.03521 -18.7624
lclavicle 7.85199e-015 -9.14409e-015
lhumerus -31.5677 -29.4911 101.659
lradius 139.215
lwrist 12.6411
lhand -20.5656 -13.7851
lfingers 7.12502
lthumb 5.79377 16.1157
rfemur -69.1058 -11.7034 16.6995
rtibia 65.8682
rfoot -10.4591 -5.3318
rtoes -28.0177
lfemur -4.18925 -5.74713 -32.058
ltibia 37.9785
lfoot 5.37404 -14.4983
ltoes -5.09197
